<svg width="106" height="25" viewBox="0 0 106 25" fill="none" xmlns="http://www.w3.org/2000/svg">
<path d="M12.504 0.48C6.008 0.48 0.504 4 0.504 12C0.504 20 6.008 24 12.504 24C19 24 24.504 20 24.504 12C24.504 4 19 0.48 12.504 0.48ZM13.496 23.52C8.984 23.52 3.48 20 3.48 12C3.48 6.496 5.496 0.991999 11.512 0.991999C15.992 0.991999 21.496 4 21.496 12C21.496 17.504 19.512 23.52 13.496 23.52ZM55.6338 0.991999V10.016C50.8978 10.016 46.8338 12 42.0978 12V0.48L39.1218 0.991999V24L42.0978 23.52V12.512C46.8338 12.512 50.8978 10.496 55.6338 10.496V24L58.6418 23.52V0.48L55.6338 0.991999ZM80.8675 24.128L83.3315 22.304L73.4435 0.48L71.3955 1.984L70.9795 2.304L71.1075 2.624L61.6355 23.936L62.0835 24.128L64.7715 18.08C69.1235 17.984 72.9315 16.288 77.2195 16.096L80.8675 24.128ZM64.9955 17.568L71.3955 3.232L76.9955 15.616C72.8675 15.84 69.1875 17.44 64.9955 17.568ZM104.442 19.008C103.13 21.696 100.442 23.456 97.4335 23.52C92.9215 23.52 87.4175 20 87.4175 12C87.4175 6.496 89.4335 0.991999 95.4495 0.991999C98.3935 1.024 101.178 2.4 103.002 4.704L103.866 2.688C101.69 1.184 99.0975 0.447998 96.4415 0.48C89.9455 0.48 84.4415 4 84.4415 12C84.4415 20 89.9455 24 96.4415 24C99.7375 24.128 102.938 22.88 105.306 20.608L104.442 19.008Z" fill="black"/>
</svg>
