<svg width="480" height="47" viewBox="0 0 480 47" fill="none" xmlns="http://www.w3.org/2000/svg">
<path d="M38.068 46.062L42.842 42.59L23.684 0.305997L19.716 3.22L18.91 3.778L19.158 4.46L0.806 45.752L1.674 46.124L6.882 34.406C15.314 34.22 22.692 30.934 31 30.562L38.068 46.062ZM7.316 33.414L19.716 5.638L30.566 29.632C22.568 30.066 15.438 33.166 7.316 33.414ZM83.4496 11.094C78.6756 11.094 75.2656 13.698 74.1496 17.79C72.7856 13.512 69.1276 11.094 63.0516 11.094C59.3936 10.908 55.9216 12.954 54.3096 16.24V12.086L48.5436 13.078V46L54.3096 45.07V21.758C54.3096 15.992 57.2236 12.086 62.0596 12.086C66.9576 12.086 68.8796 16.922 68.8796 21.758V46L74.7076 45.07V21.758C74.7076 15.992 77.6216 12.086 82.4576 12.086C87.2936 12.086 89.2156 16.922 89.2156 21.758V46L95.0436 45.07V21.758C95.0436 15 91.1996 11.094 83.4496 11.094ZM121.617 45.07C115.851 45.07 108.039 40.234 108.039 28.578V28.516C116.161 28.268 123.167 24.672 131.351 24.672H136.807C136.249 20.456 133.893 16.612 130.359 14.132C130.297 14.07 130.173 14.008 130.049 13.946C129.863 13.822 129.677 13.698 129.429 13.574C129.243 13.45 129.057 13.388 128.871 13.264C128.685 13.14 128.437 13.016 128.189 12.892C128.003 12.83 127.817 12.768 127.631 12.644C127.383 12.582 127.135 12.458 126.949 12.396C126.701 12.272 126.515 12.21 126.267 12.148C126.081 12.086 125.833 11.962 125.585 11.9C125.337 11.838 125.089 11.776 124.903 11.714C124.655 11.652 124.407 11.652 124.159 11.59C123.911 11.528 123.663 11.466 123.415 11.404C123.167 11.404 122.981 11.342 122.733 11.342C122.423 11.28 122.113 11.28 121.803 11.218C121.617 11.218 121.431 11.156 121.245 11.156C120.749 11.156 120.191 11.094 119.695 11.094C110.023 11.094 102.273 16.922 102.273 28.578C102.273 29.26 102.273 29.88 102.335 30.5C103.141 40.854 110.581 46.062 119.695 46.062C123.725 46.062 129.367 44.078 132.281 41.164L131.351 39.242C129.181 42.59 125.585 44.76 121.617 45.07ZM117.773 12.086C118.145 12.086 118.579 12.086 119.013 12.148C119.075 12.148 119.199 12.21 119.323 12.21C119.695 12.272 120.005 12.334 120.377 12.396C120.439 12.396 120.563 12.458 120.625 12.458C121.059 12.582 121.493 12.706 121.927 12.892C121.989 12.892 122.113 12.954 122.175 12.954C122.547 13.14 122.919 13.264 123.229 13.45C123.353 13.512 123.477 13.574 123.539 13.636C123.973 13.822 124.407 14.07 124.841 14.38C125.275 14.69 125.647 15 126.019 15.31C126.081 15.372 126.205 15.496 126.329 15.558C126.639 15.868 126.949 16.178 127.197 16.488C127.321 16.55 127.383 16.674 127.445 16.736C127.755 17.17 128.127 17.542 128.437 18.038C129.553 19.774 130.359 21.696 130.793 23.742C122.857 23.866 115.975 27.276 108.101 27.586C108.225 20.084 110.333 12.086 117.773 12.086ZM136.807 0.429999L137.737 1.422C139.659 1.422 142.573 2.414 142.573 9.172V46L148.401 45.07V9.172C148.401 2.414 142.573 0.429999 136.807 0.429999ZM157.466 46.062L163.232 45.07V12.086L157.466 13.078V46.062ZM160.318 9.172C161.93 9.172 163.232 7.87 163.232 6.258C163.232 4.646 161.93 3.344 160.318 3.344C158.768 3.344 157.466 4.646 157.466 6.258C157.466 7.87 158.768 9.172 160.318 9.172ZM199.829 12.086V14.876C196.481 12.334 192.389 10.97 188.173 11.094C178.501 11.094 170.751 16.922 170.751 28.578C170.751 40.234 178.501 46 188.173 46C192.389 46.124 196.481 44.822 199.829 42.28V46L205.657 45.07V11.094L199.829 12.086ZM190.095 45.07C184.267 45.07 176.517 40.234 176.517 28.578C176.517 20.828 178.501 12.086 186.251 12.086C191.397 12.334 196.295 14.566 199.829 18.348V39.738C197.597 42.9 194.001 44.884 190.095 45.07ZM259.884 1.422H241.408V0.429999L235.642 1.422V46L241.408 45.07V23.68C247.484 23.308 252.754 19.836 258.892 19.836V18.844C252.754 18.844 247.484 22.378 241.408 22.688V2.414H259.884V5.266L265.65 4.336V0.429999L259.884 1.422ZM265.287 0.429999L266.217 1.422C268.139 1.422 271.053 2.414 271.053 9.172V46L276.881 45.07V9.172C276.881 2.414 271.053 0.429999 265.287 0.429999ZM301.88 11.094C292.208 11.094 284.458 16.922 284.458 28.578C284.458 40.234 292.208 46.062 301.88 46.062C311.552 46.062 319.364 40.234 319.364 28.578C319.364 16.922 311.552 11.094 301.88 11.094ZM303.802 45.07C297.974 45.07 290.224 40.234 290.224 28.578C290.224 20.828 292.208 12.086 299.958 12.086C305.786 12.086 313.536 16.922 313.536 28.578C313.536 36.328 311.552 45.07 303.802 45.07ZM376.429 11.528L375.561 11.094L361.425 39.614L352.311 21.076L357.023 11.528L356.155 11.094L351.753 20.022L347.413 11.094L342.577 14.566L348.529 26.532L342.019 39.614L328.007 11.094L323.233 14.566L338.733 46.062L343.507 42.59L342.577 40.73L349.087 27.648L358.139 46.062L362.913 42.59L361.983 40.73L376.429 11.528ZM398.437 45.07C392.671 45.07 384.859 40.234 384.859 28.578V28.516C392.981 28.268 399.987 24.672 408.171 24.672H413.627C413.069 20.456 410.713 16.612 407.179 14.132C407.117 14.07 406.993 14.008 406.869 13.946C406.683 13.822 406.497 13.698 406.249 13.574C406.063 13.45 405.877 13.388 405.691 13.264C405.505 13.14 405.257 13.016 405.009 12.892C404.823 12.83 404.637 12.768 404.451 12.644C404.203 12.582 403.955 12.458 403.769 12.396C403.521 12.272 403.335 12.21 403.087 12.148C402.901 12.086 402.653 11.962 402.405 11.9C402.157 11.838 401.909 11.776 401.723 11.714C401.475 11.652 401.227 11.652 400.979 11.59C400.731 11.528 400.483 11.466 400.235 11.404C399.987 11.404 399.801 11.342 399.553 11.342C399.243 11.28 398.933 11.28 398.623 11.218C398.437 11.218 398.251 11.156 398.065 11.156C397.569 11.156 397.011 11.094 396.515 11.094C386.843 11.094 379.093 16.922 379.093 28.578C379.093 29.26 379.093 29.88 379.155 30.5C379.961 40.854 387.401 46.062 396.515 46.062C400.545 46.062 406.187 44.078 409.101 41.164L408.171 39.242C406.001 42.59 402.405 44.76 398.437 45.07ZM394.593 12.086C394.965 12.086 395.399 12.086 395.833 12.148C395.895 12.148 396.019 12.21 396.143 12.21C396.515 12.272 396.825 12.334 397.197 12.396C397.259 12.396 397.383 12.458 397.445 12.458C397.879 12.582 398.313 12.706 398.747 12.892C398.809 12.892 398.933 12.954 398.995 12.954C399.367 13.14 399.739 13.264 400.049 13.45C400.173 13.512 400.297 13.574 400.359 13.636C400.793 13.822 401.227 14.07 401.661 14.38C402.095 14.69 402.467 15 402.839 15.31C402.901 15.372 403.025 15.496 403.149 15.558C403.459 15.868 403.769 16.178 404.017 16.488C404.141 16.55 404.203 16.674 404.265 16.736C404.575 17.17 404.947 17.542 405.257 18.038C406.373 19.774 407.179 21.696 407.613 23.742C399.677 23.866 392.795 27.276 384.921 27.586C385.045 20.084 387.153 12.086 394.593 12.086ZM435.499 11.094C431.159 11.094 427.253 13.76 425.765 17.852V12.086L419.999 13.078V46L425.765 45.07V23.742C425.765 17.914 429.671 12.086 434.507 12.086C439.343 12.086 440.335 18.844 440.335 23.742L446.163 22.75C446.163 15.992 442.257 11.094 435.499 11.094ZM466.4 26.656C461.564 25.664 456.666 25.23 456.666 19.836C456.666 15 459.58 12.086 465.408 12.086C470.058 12.148 474.398 14.38 477.126 18.1L478.986 14.132C476.072 12.148 470.244 11.094 465.408 11.094C456.666 11.094 450.9 13.078 450.9 19.836C450.9 26.656 461.626 26.842 465.408 27.586C470.244 28.578 474.15 31.492 474.15 36.328C474.15 41.164 472.228 45.07 465.408 45.07C456.666 45.07 452.822 37.32 452.822 37.32L450.9 40.234C450.9 40.234 453.752 46.062 465.408 46.062C475.142 46.062 479.978 44.078 479.978 36.328C479.978 29.57 470.306 27.4 466.4 26.656Z" fill="#161616"/>
</svg>
