<svg width="292" height="35" viewBox="0 0 292 35" fill="none" xmlns="http://www.w3.org/2000/svg">
<path d="M6.5515 14.528L18.0715 4.864L17.7195 4.48L3.1915 16.672V4.48L0.2155 4.992V28L3.1915 27.52V17.344L5.9755 15.008C13.2715 15.232 15.7035 24.544 15.7035 28L17.7195 27.52C17.7195 23.072 14.3275 14.752 6.5515 14.528ZM35.3513 10.496V11.936C33.6233 10.624 31.5113 9.92 29.3353 9.984C24.3433 9.984 20.3433 12.992 20.3433 19.008C20.3433 25.024 24.3433 28 29.3353 28C31.5113 28.064 33.6233 27.392 35.3513 26.08V28L38.3593 27.52V9.984L35.3513 10.496ZM30.3273 27.52C27.3193 27.52 23.3193 25.024 23.3193 19.008C23.3193 15.008 24.3433 10.496 28.3433 10.496C30.9993 10.624 33.5273 11.776 35.3513 13.728V24.768C34.1993 26.4 32.3433 27.424 30.3273 27.52ZM48.5038 17.568L57.1118 10.368L56.7598 9.984L47.7998 17.536L45.2718 19.648V10.016L42.2958 10.528V28.032L45.2718 27.552V20.288L47.9598 18.048C52.8238 18.208 54.5838 25.536 54.5838 28L56.5998 27.552C56.5998 24.672 53.5918 18.144 48.5038 17.568ZM88.468 10.496V10.624L80.948 23.616L73.428 10.56V9.984L70.452 10.496V28L73.428 27.52V12.576L80.692 25.152L81.556 24.64L81.236 24.096L88.468 11.616V28L91.444 27.52V9.984L88.468 10.496ZM103.39 16.992C100.894 16.992 99.3255 17.312 98.3655 17.728V9.984L95.3895 10.496V28L98.3655 27.52C99.8375 27.904 101.374 28.064 102.878 28C107.39 28 111.39 26.528 111.39 22.496C111.39 18.496 107.902 16.992 103.39 16.992ZM102.878 27.52C101.374 27.552 99.8375 27.392 98.3655 27.008V19.008C98.7815 18.208 100.382 17.504 102.878 17.504C106.398 17.504 108.382 19.2 108.382 22.496C108.382 25.024 106.878 27.52 102.878 27.52ZM112.382 10.496V28L115.39 27.52V9.984L112.382 10.496ZM138.882 9.984C136.706 9.92 134.594 10.624 132.866 11.936V10.496L129.89 11.008V34.016L132.866 33.536V26.08C134.594 27.392 136.706 28.064 138.882 28C143.874 28 147.906 25.024 147.906 19.008C147.906 12.992 143.874 9.984 138.882 9.984ZM139.874 27.52C137.218 27.392 134.69 26.208 132.866 24.256V13.248C134.018 11.584 135.874 10.592 137.89 10.496C140.898 10.496 144.898 12.992 144.898 19.008C144.898 23.008 143.874 27.52 139.874 27.52ZM165.57 10.496V11.936C163.842 10.624 161.73 9.92 159.554 9.984C154.562 9.984 150.562 12.992 150.562 19.008C150.562 25.024 154.562 28 159.554 28C161.73 28.064 163.842 27.392 165.57 26.08V28L168.578 27.52V9.984L165.57 10.496ZM160.546 27.52C157.538 27.52 153.538 25.024 153.538 19.008C153.538 15.008 154.562 10.496 158.562 10.496C161.218 10.624 163.746 11.776 165.57 13.728V24.768C164.418 26.4 162.562 27.424 160.546 27.52ZM181.411 9.984C178.051 9.984 175.171 11.36 173.603 14.048C174.371 5.856 177.091 2.976 180.899 2.976C183.587 3.04 186.275 2.88 188.931 2.496L188.419 0.48C188.419 0.48 186.403 1.984 180.899 1.984C176.419 1.984 172.419 5.984 172.419 19.008C172.419 25.024 176.419 28 181.411 28C186.403 28 190.435 25.024 190.435 19.008C190.435 12.992 186.403 9.984 181.411 9.984ZM182.403 27.52C179.395 27.52 175.395 25.024 175.395 19.008C175.395 15.008 176.419 10.496 180.419 10.496C183.427 10.496 187.427 12.992 187.427 19.008C187.427 23.008 186.403 27.52 182.403 27.52ZM202.117 9.984C197.125 9.984 193.125 12.992 193.125 19.008C193.125 25.024 197.125 28 202.117 28C207.109 28 211.141 25.024 211.141 19.008C211.141 12.992 207.109 9.984 202.117 9.984ZM203.109 27.52C200.101 27.52 196.101 25.024 196.101 19.008C196.101 15.008 197.125 10.496 201.125 10.496C204.133 10.496 208.133 12.992 208.133 19.008C208.133 23.008 207.109 27.52 203.109 27.52ZM227.756 10.496H221.26V9.984L218.252 10.496H211.756V11.008H218.252V28L221.26 27.52V11.008H227.756V10.496ZM243.383 10.496V11.936C241.655 10.624 239.543 9.92 237.367 9.984C232.375 9.984 228.375 12.992 228.375 19.008C228.375 25.024 232.375 28 237.367 28C239.543 28.064 241.655 27.392 243.383 26.08V28L246.391 27.52V9.984L243.383 10.496ZM238.359 27.52C235.351 27.52 231.351 25.024 231.351 19.008C231.351 15.008 232.375 10.496 236.375 10.496C239.031 10.624 241.559 11.776 243.383 13.728V24.768C242.231 26.4 240.375 27.424 238.359 27.52ZM259.671 27.52C256.663 27.52 252.663 25.024 252.663 19.008V18.976C256.855 18.848 260.471 16.992 264.695 16.992H267.511C267.223 14.816 266.007 12.832 264.183 11.552C264.151 11.52 264.087 11.488 264.023 11.456C263.927 11.392 263.831 11.328 263.703 11.264C263.607 11.2 263.511 11.168 263.415 11.104C263.319 11.04 263.191 10.976 263.063 10.912C262.967 10.88 262.871 10.848 262.775 10.784C262.647 10.752 262.519 10.688 262.423 10.656C262.295 10.592 262.199 10.56 262.071 10.528C261.975 10.496 261.847 10.432 261.719 10.4C261.591 10.368 261.495 10.336 261.367 10.304C261.239 10.304 261.111 10.272 260.983 10.24C260.855 10.208 260.727 10.176 260.599 10.144C260.471 10.144 260.375 10.112 260.247 10.112C260.087 10.08 259.927 10.08 259.767 10.048C259.671 10.048 259.575 10.016 259.479 10.016C259.223 10.016 258.935 9.984 258.679 9.984C253.687 9.984 249.687 12.992 249.687 19.008C249.687 19.36 249.687 19.68 249.719 20C250.135 25.344 253.975 28.032 258.679 28.032C260.759 28.032 263.671 27.008 265.175 25.504L264.695 24.512C263.575 26.24 261.719 27.36 259.671 27.52ZM257.687 10.496C257.879 10.496 258.103 10.496 258.327 10.528C258.359 10.528 258.423 10.56 258.487 10.56C258.679 10.592 258.839 10.624 259.031 10.656C259.063 10.656 259.127 10.688 259.159 10.688C259.383 10.752 259.607 10.816 259.831 10.912C259.863 10.912 259.927 10.944 259.959 10.944C260.151 11.04 260.343 11.104 260.503 11.2C260.567 11.232 260.631 11.264 260.663 11.296C260.887 11.392 261.111 11.52 261.335 11.68C261.559 11.84 261.751 12 261.943 12.16C261.975 12.192 262.039 12.256 262.103 12.288C262.263 12.448 262.423 12.608 262.551 12.768C262.583 12.8 262.647 12.864 262.679 12.896C262.839 13.088 263.031 13.312 263.191 13.568C263.767 14.464 264.183 15.456 264.407 16.512C260.311 16.576 256.759 18.336 252.695 18.496C252.759 14.624 253.847 10.496 257.687 10.496ZM288.343 10.496V10.624L280.823 23.616L273.303 10.56V9.984L270.327 10.496V28L273.303 27.52V12.576L280.567 25.152L281.431 24.64L281.111 24.096L288.343 11.616V28L291.319 27.52V9.984L288.343 10.496Z" fill="#161616"/>
</svg>
