<svg width="225" height="35" viewBox="0 0 225 35" fill="none" xmlns="http://www.w3.org/2000/svg">
<path d="M17.3525 4.992V14.016C12.6165 14.016 8.5525 16 3.8165 16V4.48L0.8405 4.992V28L3.8165 27.52V16.512C8.5525 16.512 12.6165 14.496 17.3525 14.496V28L20.3605 27.52V4.48L17.3525 4.992ZM39.2263 10.496V11.936C37.4983 10.624 35.3863 9.92 33.2103 9.984C28.2183 9.984 24.2183 12.992 24.2183 19.008C24.2183 25.024 28.2183 28 33.2103 28C35.3863 28.064 37.4983 27.392 39.2263 26.08V28L42.2343 27.52V9.984L39.2263 10.496ZM34.2023 27.52C31.1943 27.52 27.1943 25.024 27.1943 19.008C27.1943 15.008 28.2183 10.496 32.2183 10.496C34.8743 10.624 37.4023 11.776 39.2263 13.728V24.768C38.0743 26.4 36.2183 27.424 34.2023 27.52ZM67.1628 10.496V27.008H59.6748V9.984L56.6668 10.496V27.008H49.1468V9.984L46.1708 10.496V28L49.1468 27.52H70.1708V9.984L67.1628 10.496ZM87.1003 10.496V14.592L77.0843 26.592V9.984L74.1083 10.496V28L77.0843 27.52V27.36L87.1003 15.392V28L90.1083 27.52V9.984L87.1003 10.496ZM113.6 9.984C111.424 9.92 109.312 10.624 107.584 11.936V10.496L104.608 11.008V34.016L107.584 33.536V26.08C109.312 27.392 111.424 28.064 113.6 28C118.592 28 122.624 25.024 122.624 19.008C122.624 12.992 118.592 9.984 113.6 9.984ZM114.592 27.52C111.936 27.392 109.408 26.208 107.584 24.256V13.248C108.736 11.584 110.592 10.592 112.608 10.496C115.616 10.496 119.616 12.992 119.616 19.008C119.616 23.008 118.592 27.52 114.592 27.52ZM140.289 10.496V11.936C138.561 10.624 136.449 9.92 134.273 9.984C129.281 9.984 125.281 12.992 125.281 19.008C125.281 25.024 129.281 28 134.273 28C136.449 28.064 138.561 27.392 140.289 26.08V28L143.297 27.52V9.984L140.289 10.496ZM135.265 27.52C132.257 27.52 128.257 25.024 128.257 19.008C128.257 15.008 129.281 10.496 133.281 10.496C135.937 10.624 138.465 11.776 140.289 13.728V24.768C139.137 26.4 137.281 27.424 135.265 27.52ZM156.129 9.984C152.769 9.984 149.889 11.36 148.321 14.048C149.089 5.856 151.809 2.976 155.617 2.976C158.305 3.04 160.993 2.88 163.649 2.496L163.137 0.48C163.137 0.48 161.121 1.984 155.617 1.984C151.137 1.984 147.137 5.984 147.137 19.008C147.137 25.024 151.137 28 156.129 28C161.121 28 165.153 25.024 165.153 19.008C165.153 12.992 161.121 9.984 156.129 9.984ZM157.121 27.52C154.113 27.52 150.113 25.024 150.113 19.008C150.113 15.008 151.137 10.496 155.137 10.496C158.145 10.496 162.145 12.992 162.145 19.008C162.145 23.008 161.121 27.52 157.121 27.52ZM176.835 9.984C171.843 9.984 167.843 12.992 167.843 19.008C167.843 25.024 171.843 28 176.835 28C181.827 28 185.859 25.024 185.859 19.008C185.859 12.992 181.827 9.984 176.835 9.984ZM177.827 27.52C174.819 27.52 170.819 25.024 170.819 19.008C170.819 15.008 171.843 10.496 175.843 10.496C178.851 10.496 182.851 12.992 182.851 19.008C182.851 23.008 181.827 27.52 177.827 27.52ZM202.475 10.496H195.979V9.984L192.971 10.496H186.475V11.008H192.971V28L195.979 27.52V11.008H202.475V10.496ZM212.702 16.992C210.206 16.992 208.638 17.312 207.678 17.728V9.984L204.702 10.496V28L207.678 27.52C209.15 27.904 210.686 28.064 212.19 28C216.702 28 220.702 26.528 220.702 22.496C220.702 18.496 217.214 16.992 212.702 16.992ZM212.19 27.52C210.686 27.552 209.15 27.392 207.678 27.008V19.008C208.094 18.208 209.694 17.504 212.19 17.504C215.71 17.504 217.694 19.2 217.694 22.496C217.694 25.024 216.19 27.52 212.19 27.52ZM221.694 10.496V28L224.702 27.52V9.984L221.694 10.496Z" fill="#161616"/>
</svg>
