<svg width="28" height="28" viewBox="0 0 28 28" fill="none" xmlns="http://www.w3.org/2000/svg">
<g id="ic:baseline-telegram">
<path id="Vector" d="M14.0007 2.33301C7.56065 2.33301 2.33398 7.55967 2.33398 13.9997C2.33398 20.4397 7.56065 25.6663 14.0007 25.6663C20.4407 25.6663 25.6673 20.4397 25.6673 13.9997C25.6673 7.55967 20.4407 2.33301 14.0007 2.33301ZM19.414 10.2663C19.239 12.1097 18.4807 16.5897 18.0957 18.6547C17.9323 19.5297 17.6057 19.8213 17.3023 19.8563C16.6257 19.9147 16.1123 19.413 15.459 18.9813C14.4323 18.3047 13.849 17.8847 12.8573 17.2313C11.7023 16.473 12.449 16.053 13.114 15.3763C13.289 15.2013 16.2757 12.483 16.334 12.238C16.3421 12.2009 16.341 12.1624 16.3308 12.1258C16.3207 12.0892 16.3017 12.0556 16.2757 12.028C16.2057 11.9697 16.1123 11.993 16.0307 12.0047C15.9257 12.028 14.2923 13.113 11.1073 15.2597C10.6407 15.5747 10.2207 15.738 9.84732 15.7263C9.42732 15.7147 8.63398 15.493 8.03898 15.2947C7.30398 15.0613 6.73232 14.933 6.77898 14.5247C6.80232 14.3147 7.09399 14.1047 7.64232 13.883C11.049 12.4013 13.3123 11.4213 14.444 10.9547C17.6873 9.60134 18.3523 9.36801 18.7957 9.36801C18.889 9.36801 19.1107 9.39134 19.2507 9.50801C19.3673 9.60134 19.4023 9.72968 19.414 9.82301C19.4023 9.89301 19.4257 10.103 19.414 10.2663Z" fill="#343434"/>
</g>
</svg>
