<svg width="28" height="28" viewBox="0 0 28 28" fill="none" xmlns="http://www.w3.org/2000/svg">
<g id="basil:viber-solid">
<path id="Vector" fill-rule="evenodd" clip-rule="evenodd" d="M19.4548 3.06556C15.7843 2.24507 11.9779 2.24507 8.30733 3.06556L7.91183 3.15306C6.87935 3.3839 5.93108 3.89645 5.17234 4.63376C4.41361 5.37107 3.87413 6.30428 3.61383 7.32973C2.68341 10.996 2.68341 14.8366 3.61383 18.5029C3.86207 19.4809 4.36447 20.3758 5.0701 21.097C5.77573 21.8182 6.65951 22.34 7.63183 22.6096L8.17433 25.8482C8.19165 25.9511 8.23622 26.0474 8.3034 26.1272C8.37059 26.2069 8.45793 26.2672 8.55633 26.3018C8.65473 26.3363 8.76059 26.3438 8.86289 26.3236C8.96519 26.3033 9.06019 26.256 9.138 26.1866L12.3242 23.3364C14.7159 23.4824 17.1163 23.2911 19.4548 22.7682L19.8515 22.6807C20.884 22.4499 21.8323 21.9373 22.591 21.2C23.3497 20.4627 23.8892 19.5295 24.1495 18.5041C25.0798 14.8378 25.0798 10.9972 24.1495 7.3309C23.8891 6.3053 23.3494 5.37198 22.5905 4.63466C21.8315 3.89733 20.883 3.38488 19.8503 3.15423L19.4548 3.06556ZM9.292 7.23523C9.07517 7.20367 8.85407 7.24731 8.6655 7.3589H8.64916C8.21166 7.61556 7.81733 7.93873 7.48133 8.31906C7.20133 8.64223 7.04966 8.9689 7.01 9.2839C6.98666 9.47056 7.003 9.65956 7.05783 9.83806L7.07883 9.84973C7.39383 10.7749 7.8045 11.6651 8.30616 12.5027C8.95302 13.6793 9.74904 14.7675 10.6745 15.7402L10.7025 15.7799L10.7468 15.8126L10.7737 15.8441L10.8063 15.8721C11.7825 16.8003 12.8732 17.6001 14.052 18.2521C15.3995 18.9859 16.2173 19.3324 16.7085 19.4771V19.4841C16.852 19.5284 16.9827 19.5482 17.1145 19.5482C17.5328 19.5173 17.9287 19.3473 18.2392 19.0652C18.6183 18.7292 18.9392 18.3337 19.1888 17.8939V17.8857C19.4233 17.4424 19.344 17.0247 19.0057 16.7412C18.3261 16.1474 17.5912 15.62 16.8112 15.1662C16.2885 14.8827 15.7577 15.0542 15.543 15.3412L15.0845 15.9199C14.8488 16.2069 14.4218 16.1672 14.4218 16.1672L14.4102 16.1742C11.224 15.3611 10.3735 12.1352 10.3735 12.1352C10.3735 12.1352 10.3338 11.6966 10.629 11.4726L11.203 11.0106C11.4783 10.7866 11.6697 10.2569 11.3745 9.73423C10.9237 8.95345 10.3973 8.21882 9.803 7.5409C9.67337 7.38135 9.49157 7.27269 9.28966 7.23406L9.292 7.23523ZM14.675 5.8329C14.5203 5.8329 14.3719 5.89436 14.2625 6.00375C14.1531 6.11315 14.0917 6.26152 14.0917 6.41623C14.0917 6.57094 14.1531 6.71931 14.2625 6.82871C14.3719 6.93811 14.5203 6.99956 14.675 6.99956C16.1508 6.99956 17.3758 7.4814 18.3453 8.4054C18.8435 8.91056 19.232 9.50906 19.4863 10.1647C19.7418 10.8216 19.8585 11.5227 19.8282 12.2251C19.8249 12.3017 19.8368 12.3782 19.8632 12.4502C19.8895 12.5222 19.9298 12.5883 19.9817 12.6447C20.0865 12.7587 20.2323 12.8264 20.387 12.8329C20.5417 12.8394 20.6927 12.7842 20.8067 12.6794C20.9206 12.5746 20.9883 12.4288 20.9948 12.2741C21.031 11.4101 20.8876 10.5481 20.5737 9.7424C20.2584 8.93289 19.7803 8.1967 19.169 7.5794L19.1573 7.56773C17.9545 6.41856 16.432 5.8329 14.675 5.8329ZM14.6353 7.7509C14.4806 7.7509 14.3322 7.81236 14.2229 7.92175C14.1135 8.03115 14.052 8.17952 14.052 8.33423C14.052 8.48894 14.1135 8.63731 14.2229 8.74671C14.3322 8.85611 14.4806 8.91756 14.6353 8.91756H14.6552C15.7192 8.9934 16.4938 9.34806 17.0363 9.93023C17.5928 10.5299 17.881 11.2754 17.8588 12.1971C17.8553 12.3518 17.9133 12.5016 18.0202 12.6135C18.1271 12.7254 18.274 12.7903 18.4287 12.7938C18.5835 12.7974 18.7332 12.7393 18.8452 12.6324C18.9571 12.5256 19.0219 12.3786 19.0255 12.2239C19.0535 11.0141 18.6638 9.9699 17.8915 9.1369V9.13456C17.1017 8.28756 16.0178 7.83956 14.7135 7.75206L14.6937 7.74973L14.6353 7.7509ZM14.6132 9.70506C14.5351 9.69818 14.4564 9.70709 14.3819 9.73127C14.3074 9.75545 14.2384 9.79441 14.1793 9.84581C14.1201 9.89721 14.0719 9.96001 14.0376 10.0304C14.0032 10.1009 13.9834 10.1775 13.9793 10.2558C13.9753 10.3341 13.987 10.4123 14.0138 10.486C14.0407 10.5596 14.0821 10.6271 14.1356 10.6843C14.1891 10.7416 14.2536 10.7875 14.3252 10.8193C14.3968 10.8511 14.4741 10.8681 14.5525 10.8694C15.0402 10.8951 15.3517 11.0421 15.5477 11.2392C15.7448 11.4376 15.8918 11.7561 15.9187 12.2542C15.9201 12.3325 15.9373 12.4097 15.9692 12.4812C16.0012 12.5527 16.0471 12.617 16.1045 12.6704C16.1618 12.7237 16.2292 12.765 16.3028 12.7917C16.3764 12.8184 16.4546 12.83 16.5328 12.8259C16.611 12.8217 16.6876 12.8019 16.7579 12.7675C16.8283 12.7332 16.891 12.685 16.9423 12.6259C16.9937 12.5668 17.0326 12.4979 17.0567 12.4234C17.0809 12.349 17.0898 12.2704 17.083 12.1924C17.0457 11.4924 16.8263 10.8741 16.3772 10.4191C15.9257 9.96406 15.3108 9.7424 14.6132 9.70506Z" fill="#343434"/>
</g>
</svg>
